<svg width="36" height="19" viewBox="0 0 36 19" fill="none" xmlns="http://www.w3.org/2000/svg">
<path d="M6.82031 3.2998C7.70465 3.29986 8.51492 3.51516 9.23828 3.95215H9.2373C9.96403 4.38293 10.5443 4.9705 10.9727 5.70898C11.4067 6.4574 11.6201 7.29205 11.6201 8.2002C11.6201 9.12017 11.4072 9.96672 10.9746 10.7275L10.9727 10.7305C10.5446 11.4685 9.96583 12.0632 9.24121 12.5068L9.24023 12.5059C8.51709 12.9567 7.70628 13.1796 6.82031 13.1797H4.09961V18.2998H0.5V3.2998H6.82031ZM14.8857 0.5L14.9922 0.856445L17.9668 10.7617L18.0645 11.1035C18.1076 10.9718 18.151 10.8446 18.1943 10.7217L18.2002 10.7061L21.0322 3.45801L21.1562 3.13965H24.5059L24.6289 3.46191L27.3887 10.71L27.3926 10.7197L27.5303 11.1191C27.5635 10.9986 27.6019 10.871 27.6387 10.7344L27.6426 10.7207L30.5947 0.856445L30.7012 0.5H34.9941L34.791 1.14941L29.5352 17.9492L29.4248 18.2998H26.4688L26.3398 17.9932L22.7061 9.29492L19.2256 17.9863L19.0996 18.2998H16.1133L16.0039 17.9482L10.7725 1.14844L10.5703 0.5H14.8857ZM4.09961 9.78027H6.63965C6.87284 9.78027 7.07255 9.71696 7.25293 9.59082L7.2627 9.58398C7.47071 9.4453 7.63461 9.26259 7.75684 9.02832L7.76074 9.02148L7.76465 9.01367C7.89143 8.78929 7.95996 8.52872 7.95996 8.21973C7.95992 7.91036 7.89143 7.66039 7.76953 7.4541L7.7627 7.44336L7.75684 7.43164C7.63619 7.20041 7.4761 7.02892 7.27637 6.90527L7.25293 6.88965C7.07249 6.7634 6.87294 6.7002 6.63965 6.7002H4.09961V9.78027Z" fill="url(#paint0_linear_4005_2)" stroke="white"/>
<defs>
<linearGradient id="paint0_linear_4005_2" x1="23.8456" y1="1" x2="23.8456" y2="17.8" gradientUnits="userSpaceOnUse">
<stop stop-color="white"/>
<stop offset="1" stop-color="#999999"/>
</linearGradient>
</defs>
</svg>
